<!-- ★★★★☆ (4.5)  行クリップ方式：rect 幅 = 140 * 0.9 = 126 -->
<svg xmlns="http://www.w3.org/2000/svg" width="140" height="24" viewBox="0 0 140 24" aria-label="rating 4.5">
  <defs>
    <symbol id="star-4-5" viewBox="0 0 24 24">
      <path d="M12 17.27L18.18 21 16.54 13.97 22 9.24 14.81 8.63 12 2 9.19 8.63 2 9.24 7.46 13.97 5.82 21z"/>
    </symbol>
    <clipPath id="clip-4-5">
      <!-- 140 * (4.5/5) = 126 -->
      <rect x="0" y="0" width="124" height="24"/>
    </clipPath>
  </defs>

  <!-- ベース（薄グレー） -->
  <g fill="#E0E0E0">
    <use href="#star-4-5" x="0"   y="0" width="24" height="24"/>
    <use href="#star-4-5" x="28"  y="0" width="24" height="24"/>
    <use href="#star-4-5" x="56"  y="0" width="24" height="24"/>
    <use href="#star-4-5" x="84"  y="0" width="24" height="24"/>
    <use href="#star-4-5" x="112" y="0" width="24" height="24"/>
  </g>

  <!-- アクティブ（黄色）を行クリップで覆う -->
  <g fill="#FFC107" clip-path="url(#clip-4-5)">
    <use href="#star-4-5" x="0"   y="0" width="24" height="24"/>
    <use href="#star-4-5" x="28"  y="0" width="24" height="24"/>
    <use href="#star-4-5" x="56"  y="0" width="24" height="24"/>
    <use href="#star-4-5" x="84"  y="0" width="24" height="24"/>
    <use href="#star-4-5" x="112" y="0" width="24" height="24"/>
  </g>
</svg>
