<!-- ★★★★★ (5.0)  修正版：use に width/height を付与、id をユニーク化 -->
<svg xmlns="http://www.w3.org/2000/svg" width="140" height="24" viewBox="0 0 140 24" aria-label="rating 5.0">
  <defs>
    <symbol id="star-5-0" viewBox="0 0 24 24">
      <path d="M12 17.27L18.18 21 16.54 13.97 22 9.24 14.81 8.63 12 2 9.19 8.63 2 9.24 7.46 13.97 5.82 21z"/>
    </symbol>
  </defs>

  <!-- ベース（薄グレー） -->
  <g fill="#E0E0E0">
    <use href="#star-5-0" x="0"   y="0" width="24" height="24"/>
    <use href="#star-5-0" x="28"  y="0" width="24" height="24"/>
    <use href="#star-5-0" x="56"  y="0" width="24" height="24"/>
    <use href="#star-5-0" x="84"  y="0" width="24" height="24"/>
    <use href="#star-5-0" x="112" y="0" width="24" height="24"/>
  </g>

  <!-- アクティブ（黄色） -->
  <g fill="#FFC107">
    <use href="#star-5-0" x="0"   y="0" width="24" height="24"/>
    <use href="#star-5-0" x="28"  y="0" width="24" height="24"/>
    <use href="#star-5-0" x="56"  y="0" width="24" height="24"/>
    <use href="#star-5-0" x="84"  y="0" width="24" height="24"/>
    <use href="#star-5-0" x="112" y="0" width="24" height="24"/>
  </g>
</svg>
